<?xml version="1.0" encoding="UTF-8" standalone="no"?>
<!-- Created with Inkscape (http://www.inkscape.org/) -->

<svg
   xmlns:dc="http://purl.org/dc/elements/1.1/"
   xmlns:cc="http://creativecommons.org/ns#"
   xmlns:rdf="http://www.w3.org/1999/02/22-rdf-syntax-ns#"
   xmlns:svg="http://www.w3.org/2000/svg"
   xmlns="http://www.w3.org/2000/svg"
   xmlns:sodipodi="http://sodipodi.sourceforge.net/DTD/sodipodi-0.dtd"
   xmlns:inkscape="http://www.inkscape.org/namespaces/inkscape"
   id="svg3004"
   version="1.1"
   inkscape:version="0.48.5 r10040"
   width="2139.3408"
   height="752.21924"
   xml:space="preserve"
   sodipodi:docname="Logo_PHP7.ai"><metadata
     id="metadata3010"><rdf:RDF><cc:Work
         rdf:about=""><dc:format>image/svg+xml</dc:format><dc:type
           rdf:resource="http://purl.org/dc/dcmitype/StillImage" /><dc:title></dc:title></cc:Work></rdf:RDF></metadata><defs
     id="defs3008"><clipPath
       clipPathUnits="userSpaceOnUse"
       id="clipPath3026"><path
         d="m 0,5669.294 5102.363,0 L 5102.363,0 0,0 0,5669.294 z"
         id="path3028"
         inkscape:connector-curvature="0" /></clipPath></defs><sodipodi:namedview
     pagecolor="#ffffff"
     bordercolor="#666666"
     borderopacity="1"
     objecttolerance="10"
     gridtolerance="10"
     guidetolerance="10"
     inkscape:pageopacity="0"
     inkscape:pageshadow="2"
     inkscape:window-width="1366"
     inkscape:window-height="718"
     id="namedview3006"
     showgrid="false"
     fit-margin-top="0"
     fit-margin-left="0"
     fit-margin-right="0"
     fit-margin-bottom="0"
     inkscape:zoom="0.12576519"
     inkscape:cx="931.81122"
     inkscape:cy="351.85842"
     inkscape:window-x="0"
     inkscape:window-y="0"
     inkscape:window-maximized="1"
     inkscape:current-layer="g3012" /><g
     id="g3012"
     inkscape:groupmode="layer"
     inkscape:label="Logo_PHP7"
     transform="matrix(1.25,0,0,-1.25,-820.0895,6399.7346)"><g
       id="g5348"><g
         transform="translate(656.0716,4518.0123)"
         id="g3186"><path
           inkscape:connector-curvature="0"
           id="path3188"
           style="fill:#ffffff;fill-opacity:1;fill-rule:nonzero;stroke:none"
           d="m 0,0 103.555,0 24.566,126.399 88.709,0 c 39.129,0 71.334,4.11 96.604,12.338 25.283,8.206 48.25,21.993 68.935,41.35 17.35,15.948 31.389,33.536 42.147,52.773 10.736,19.238 18.371,40.459 22.871,63.675 10.961,56.348 2.697,100.238 -24.772,131.685 -27.478,31.444 -71.166,47.168 -131.078,47.168 l -199.133,0 L 0,0 z m 252.314,400.372 c 39.34,0 65.573,-7.26 78.684,-21.791 13.098,-14.516 16.223,-39.449 9.359,-74.778 -7.162,-36.801 -20.937,-63.057 -41.375,-78.792 -20.449,-15.735 -51.537,-23.608 -93.291,-23.608 l -62.986,0 38.666,198.969 70.943,0 z" /></g><g
         transform="translate(1179.5208,5119.7877)"
         id="g3190"><path
           inkscape:connector-curvature="0"
           id="path3192"
           style="fill:#ffffff;fill-opacity:1;fill-rule:nonzero;stroke:none"
           d="m 0,0 102.742,0 -24.568,-126.388 91.531,0 c 57.584,0 97.307,-10.047 119.18,-30.128 21.865,-20.092 28.406,-52.641 19.666,-97.649 l -42.988,-221.211 -104.372,0 40.875,210.333 c 4.645,23.929 2.946,40.245 -5.13,48.95 -8.075,8.704 -25.27,13.062 -51.551,13.062 l -82.117,0 -52.926,-272.345 -102.746,0 L 0,0 z" /></g><g
         transform="translate(1464.3567,4518.0123)"
         id="g3194"><path
           inkscape:connector-curvature="0"
           id="path3196"
           style="fill:#ffffff;fill-opacity:1;fill-rule:nonzero;stroke:none"
           d="m 0,0 103.564,0 24.557,126.399 88.699,0 c 39.139,0 71.332,4.11 96.614,12.338 25.271,8.206 48.248,21.993 68.925,41.35 17.362,15.948 31.397,33.536 42.145,52.773 10.734,19.238 18.371,40.459 22.883,63.675 10.961,56.348 2.695,100.238 -24.772,131.685 -27.478,31.444 -71.181,47.168 -131.078,47.168 l -199.135,0 L 0,0 z m 252.313,400.372 c 39.341,0 65.564,-7.26 78.673,-21.791 13.11,-14.516 16.233,-39.449 9.369,-74.778 -7.16,-36.801 -20.949,-63.057 -41.384,-78.792 -20.438,-15.735 -51.528,-23.608 -93.293,-23.608 l -62.973,0 38.652,198.969 70.956,0 z" /></g></g></g></svg>
